<svg id="Ebene_1" data-name="Ebene 1" xmlns="http://www.w3.org/2000/svg" xmlns:xlink="http://www.w3.org/1999/xlink" viewBox="0 0 311.81 70.87"><defs><style>.cls-1{fill:none;}.cls-2,.cls-3{fill:#66696f;}.cls-3{stroke:#66696f;stroke-width:0.5px;}.cls-4{clip-path:url(#clip-path);}.cls-5{fill:#e2001a;}</style><clipPath id="clip-path"><rect class="cls-1" x="46.54" y="25.51" width="102.35" height="19.57"/></clipPath></defs><title>Zeichenfläche 2</title><polygon class="cls-2" points="183.09 25.53 184.45 25.53 186.2 31.07 186.22 31.07 188.01 25.53 189.32 25.53 189.32 32.5 188.48 32.5 188.48 26.49 188.47 26.49 186.49 32.5 185.85 32.5 183.95 26.49 183.93 26.49 183.93 32.5 183.09 32.5 183.09 25.53"/><path class="cls-2" d="M194.23,29.92l-1.07-3.47h0L192,29.92Zm-.57-4.39,2.28,7H195l-.56-1.82H191.8l-.56,1.82h-.88l2.34-7Z"/><path class="cls-2" d="M199.86,26.54a2.35,2.35,0,0,0-1.19-.32,1,1,0,0,0-1.09,1c0,.44.18.72,1.18,1.3s1.44,1.23,1.44,2a1.87,1.87,0,0,1-2,2,3.47,3.47,0,0,1-1.46-.3v-.91a2.89,2.89,0,0,0,1.33.45,1.14,1.14,0,0,0,1.24-1.1c0-.54-.14-.85-1.08-1.42-1.26-.76-1.54-1.19-1.54-2.08a1.75,1.75,0,0,1,1.94-1.75,3.54,3.54,0,0,1,1.26.23Z"/><polygon class="cls-2" points="202.63 26.29 201.03 26.29 201.03 25.53 205.1 25.53 205.1 26.29 203.51 26.29 203.51 32.5 202.63 32.5 202.63 26.29"/><polygon class="cls-2" points="206.25 25.53 209.5 25.53 209.5 26.29 207.13 26.29 207.13 28.5 209.39 28.5 209.39 29.26 207.13 29.26 207.13 31.74 209.63 31.74 209.63 32.5 206.25 32.5 206.25 25.53"/><path class="cls-2" d="M212,28.62h.67a1.17,1.17,0,0,0,1.3-1.22c0-.78-.51-1.15-1.28-1.15H212Zm-.89-3.09h1.79a2,2,0,0,1,1.47.48,1.79,1.79,0,0,1,.52,1.33A1.58,1.58,0,0,1,213.47,29v0a.9.9,0,0,1,.76.68l1,2.8h-1l-.8-2.36a1,1,0,0,0-1.11-.8H212V32.5h-.89Z"/><path class="cls-2" d="M221.3,31.85c.92,0,1.7-.76,1.7-2.91,0-1.41-.44-2.76-1.62-2.76-.92,0-1.7.76-1.7,2.9,0,1.41.44,2.77,1.62,2.77m.08-6.39c1.55,0,2.54,1.33,2.54,3.48,0,2.41-1,3.63-2.62,3.63s-2.53-1.33-2.53-3.49c0-2.4,1-3.62,2.61-3.62"/><polygon class="cls-2" points="225.36 25.53 228.47 25.53 228.47 26.29 226.24 26.29 226.24 28.5 228.36 28.5 228.36 29.26 226.24 29.26 226.24 32.5 225.36 32.5 225.36 25.53"/><path class="cls-2" d="M235.28,26.54a2.29,2.29,0,0,0-1.18-.32,1,1,0,0,0-1.09,1c0,.44.18.72,1.18,1.3s1.43,1.23,1.43,2a1.86,1.86,0,0,1-2,2,3.47,3.47,0,0,1-1.46-.3v-.91a2.89,2.89,0,0,0,1.32.45,1.14,1.14,0,0,0,1.25-1.1c0-.54-.14-.85-1.08-1.42-1.26-.76-1.54-1.19-1.54-2.08A1.75,1.75,0,0,1,234,25.46a3.48,3.48,0,0,1,1.25.23Z"/><path class="cls-2" d="M241.16,32.36a4.38,4.38,0,0,1-1.27.21c-2.21,0-3.14-1.68-3.14-3.57,0-2.17,1.27-3.54,3.09-3.54a3.17,3.17,0,0,1,1.32.25v.86a2.4,2.4,0,0,0-1.31-.35,2.31,2.31,0,0,0-2.18,2.6c0,1.8.72,3,2.24,3a2.51,2.51,0,0,0,1.25-.33Z"/><rect class="cls-2" x="242.61" y="25.53" width="0.88" height="6.97"/><polygon class="cls-2" points="245.22 25.53 248.47 25.53 248.47 26.29 246.1 26.29 246.1 28.5 248.36 28.5 248.36 29.26 246.1 29.26 246.1 31.74 248.6 31.74 248.6 32.5 245.22 32.5 245.22 25.53"/><polygon class="cls-2" points="250.03 25.53 251.12 25.53 253.75 31.28 253.77 31.28 253.77 25.53 254.61 25.53 254.61 32.5 253.52 32.5 250.89 26.79 250.87 26.79 250.87 32.5 250.03 32.5 250.03 25.53"/><path class="cls-2" d="M260.45,32.36a4.38,4.38,0,0,1-1.27.21c-2.2,0-3.13-1.68-3.13-3.57,0-2.17,1.26-3.54,3.08-3.54a3.17,3.17,0,0,1,1.32.25v.86a2.4,2.4,0,0,0-1.31-.35,2.31,2.31,0,0,0-2.18,2.6c0,1.8.73,3,2.24,3a2.51,2.51,0,0,0,1.25-.33Z"/><polygon class="cls-2" points="261.9 25.53 265.14 25.53 265.14 26.29 262.78 26.29 262.78 28.5 265.04 28.5 265.04 29.26 262.78 29.26 262.78 31.74 265.27 31.74 265.27 32.5 261.9 32.5 261.9 25.53"/><rect class="cls-2" x="183.09" y="38.12" width="0.88" height="6.97"/><polygon class="cls-2" points="185.71 38.12 186.8 38.12 189.42 43.87 189.44 43.87 189.44 38.12 190.28 38.12 190.28 45.09 189.19 45.09 186.57 39.37 186.55 39.37 186.55 45.09 185.71 45.09 185.71 38.12"/><polygon class="cls-2" points="194.62 38.12 197.86 38.12 197.86 38.87 195.5 38.87 195.5 41.09 197.75 41.09 197.75 41.85 195.5 41.85 195.5 44.33 197.99 44.33 197.99 45.09 194.62 45.09 194.62 38.12"/><polygon class="cls-2" points="199.54 38.12 200.63 38.12 203.26 43.87 203.28 43.87 203.28 38.12 204.11 38.12 204.11 45.09 203.03 45.09 200.4 39.37 200.38 39.37 200.38 45.09 199.54 45.09 199.54 38.12"/><path class="cls-2" d="M210.52,44.8a5.49,5.49,0,0,1-1.73.36c-2.21,0-3.14-1.68-3.14-3.57,0-2.18,1.27-3.54,3.09-3.54a3.78,3.78,0,0,1,1.64.31v.87a3.73,3.73,0,0,0-1.63-.42,2.3,2.3,0,0,0-2.18,2.6c0,1.8.72,3,2.24,3a2.09,2.09,0,0,0,.87-.19V42h-1.17v-.76h2Z"/><rect class="cls-2" x="212.35" y="38.12" width="0.88" height="6.97"/><polygon class="cls-2" points="215.07 38.12 216.16 38.12 218.78 43.87 218.81 43.87 218.81 38.12 219.64 38.12 219.64 45.09 218.56 45.09 215.93 39.37 215.91 39.37 215.91 45.09 215.07 45.09 215.07 38.12"/><polygon class="cls-2" points="221.47 38.12 224.72 38.12 224.72 38.87 222.35 38.87 222.35 41.09 224.61 41.09 224.61 41.85 222.35 41.85 222.35 44.33 224.85 44.33 224.85 45.09 221.47 45.09 221.47 38.12"/><polygon class="cls-2" points="226.4 38.12 229.64 38.12 229.64 38.87 227.28 38.87 227.28 41.09 229.53 41.09 229.53 41.85 227.28 41.85 227.28 44.33 229.77 44.33 229.77 45.09 226.4 45.09 226.4 38.12"/><path class="cls-2" d="M232.19,41.21h.68a1.18,1.18,0,0,0,1.3-1.23c0-.78-.51-1.15-1.28-1.15h-.7Zm-.88-3.09h1.79a2,2,0,0,1,1.47.47,1.82,1.82,0,0,1,.51,1.33,1.59,1.59,0,0,1-1.37,1.67v0a.87.87,0,0,1,.75.68l1,2.8h-.95l-.79-2.36a1,1,0,0,0-1.11-.8h-.4v3.16h-.88Z"/><rect class="cls-2" x="236.79" y="38.12" width="0.88" height="6.97"/><polygon class="cls-2" points="239.51 38.12 240.6 38.12 243.22 43.87 243.24 43.87 243.24 38.12 244.08 38.12 244.08 45.09 242.99 45.09 240.37 39.37 240.35 39.37 240.35 45.09 239.51 45.09 239.51 38.12"/><path class="cls-2" d="M250.49,44.8a5.43,5.43,0,0,1-1.72.36c-2.21,0-3.14-1.68-3.14-3.57,0-2.18,1.27-3.54,3.09-3.54a3.78,3.78,0,0,1,1.64.31v.87a3.73,3.73,0,0,0-1.63-.42,2.3,2.3,0,0,0-2.18,2.6c0,1.8.72,3,2.24,3a2.09,2.09,0,0,0,.87-.19V42h-1.17v-.76h2Z"/><line class="cls-3" x1="173.21" y1="25.52" x2="173.21" y2="45.08"/><polygon class="cls-2" points="51.65 45.08 46.54 45.08 46.54 25.52 53.46 25.52 62.53 39.03 71.06 25.52 78.25 25.52 78.25 40.2 78.25 45.08 73.21 45.08 73.21 30.7 64.14 45.08 60.78 45.08 51.64 30.7 51.65 45.08"/><path class="cls-2" d="M81.85,30.39A4.23,4.23,0,0,1,83.69,27a7.19,7.19,0,0,1,4.51-1.43h25.36V30.7H86.89v2.35h20.29a8.94,8.94,0,0,1,4.79,1,4,4,0,0,1,1.59,3.6V39.9a4.44,4.44,0,0,1-1.81,3.88,7.64,7.64,0,0,1-4.57,1.3H81.85V39.9h26.47V37.69H88.16a8.46,8.46,0,0,1-4.57-1.21,4,4,0,0,1-1.74-3.43V30.39Z"/><g class="cls-4"><path class="cls-2" d="M144.44,39.77h4.43v5.31H123.51A7.17,7.17,0,0,1,119,43.65a4.23,4.23,0,0,1-1.84-3.45V32.91h31.71v4.64H122.19v2.22h22.25Z"/><path class="cls-5" d="M117.17,30.68v-.3A4.24,4.24,0,0,1,119,26.94a7.14,7.14,0,0,1,4.5-1.43h25.36v5.17H117.17Z"/></g></svg>